<?xml version="1.0" encoding="UTF-8" standalone="no"?>
<!-- Generator: Adobe Illustrator 26.0.1, SVG Export Plug-In . SVG Version: 6.00 Build 0)  -->

<svg
   version="1.1"
   x="0px"
   y="0px"
   viewBox="0 0 1915 376"
   xml:space="preserve"
   id="svg27"
   sodipodi:docname="logo_3.svg"
   width="1915"
   height="376"
   inkscape:version="1.4.2 (ebf0e940, 2025-05-08)"
   xmlns:inkscape="http://www.inkscape.org/namespaces/inkscape"
   xmlns:sodipodi="http://sodipodi.sourceforge.net/DTD/sodipodi-0.dtd"
   xmlns:xlink="http://www.w3.org/1999/xlink"
   xmlns="http://www.w3.org/2000/svg"
   xmlns:svg="http://www.w3.org/2000/svg"><defs
   id="defs27" />
<style
   type="text/css"
   id="style1">
	.st0{fill:none;}
	.st1{fill:#E8E8E8;stroke:#E8E8E8;stroke-width:2;stroke-miterlimit:10;}
	.st2{fill:#E8EFF2;}
	.st3{fill:#FBFCFC;}
	.st4{fill:#66DF83;}
	.st5{fill:#4AF06F;}
	.st6{fill:#D1DBE1;}
	.st7{fill:#FCFDFD;}
	.st8{fill:#B9C5CF;}
	.st9{fill:#47F06C;}
	.st10{fill:url(#SVGID_1_);}
	.st11{font-family:'ArialMT';}
	.st12{font-size:259.202px;}
	.st13{fill:none;stroke:#E8E8E8;stroke-width:3.645;}
	.st14{fill-rule:evenodd;clip-rule:evenodd;fill:#4AF06F;}
	.st15{fill:#012046;}
</style>
<pattern
   y="500"
   width="2048"
   height="500"
   patternUnits="userSpaceOnUse"
   id="pattern882"
   viewBox="0 -500 2048 500"
   style="overflow:visible">
	<g
   id="g1">
		<rect
   y="-500"
   class="st0"
   width="2048"
   height="500"
   id="rect1" />
	</g>
</pattern>
<g
   id="Слой_2"
   transform="translate(-104.16667,-75)">
	<line
   class="st1"
   x1="161.2"
   y1="128.3"
   x2="161.2"
   y2="390.39999"
   id="line1" />
	<line
   class="st1"
   x1="204.3"
   y1="128.3"
   x2="204.3"
   y2="390.39999"
   id="line2" />
	<line
   class="st1"
   x1="247.60001"
   y1="128.3"
   x2="247.60001"
   y2="390.39999"
   id="line3" />
	<line
   class="st1"
   x1="293.39999"
   y1="128.3"
   x2="293.39999"
   y2="390.39999"
   id="line4" />
	<line
   class="st1"
   x1="335"
   y1="128.3"
   x2="335"
   y2="390.39999"
   id="line5" />
	<line
   class="st1"
   x1="378"
   y1="128.3"
   x2="378"
   y2="390.39999"
   id="line6" />
	<line
   class="st1"
   x1="421.29999"
   y1="128.3"
   x2="421.29999"
   y2="390.39999"
   id="line7" />
	<line
   class="st1"
   x1="144.8"
   y1="135.5"
   x2="441"
   y2="135.5"
   id="line8" />
	<line
   class="st1"
   x1="144.8"
   y1="172"
   x2="441"
   y2="172"
   id="line9" />
	<line
   class="st1"
   x1="144.8"
   y1="207.60001"
   x2="441"
   y2="207.60001"
   id="line10" />
	<line
   class="st1"
   x1="144.8"
   y1="229.7"
   x2="441"
   y2="229.7"
   id="line11" />
	<line
   class="st1"
   x1="144.8"
   y1="266.10001"
   x2="441"
   y2="266.10001"
   id="line12" />
	<line
   class="st1"
   x1="144.8"
   y1="286.39999"
   x2="441"
   y2="286.39999"
   id="line13" />
	<line
   class="st1"
   x1="144.8"
   y1="321.29999"
   x2="441"
   y2="321.29999"
   id="line14" />
	<line
   class="st1"
   x1="144.8"
   y1="342.20001"
   x2="441"
   y2="342.20001"
   id="line15" />
	<line
   class="st1"
   x1="144.8"
   y1="377.5"
   x2="441"
   y2="377.5"
   id="line16" />
	<line
   class="st1"
   x1="350.60001"
   y1="390.20001"
   x2="426.89999"
   y2="126.8"
   id="line17" />
	<line
   class="st1"
   x1="306.70001"
   y1="390.20001"
   x2="383"
   y2="126.8"
   id="line18" />
	<line
   class="st1"
   x1="268.60001"
   y1="390.20001"
   x2="344.89999"
   y2="126.8"
   id="line19" />
	<line
   class="st1"
   x1="220.60001"
   y1="390.20001"
   x2="296.79999"
   y2="126.8"
   id="line20"
   style="display:inline" />
	<line
   class="st1"
   x1="233.10001"
   y1="390.20001"
   x2="309.29999"
   y2="126.8"
   id="line21" />
	<line
   class="st1"
   x1="181.89999"
   y1="390.20001"
   x2="258.10001"
   y2="126.8"
   id="line22" />
	<line
   class="st1"
   x1="143.8"
   y1="390.20001"
   x2="220"
   y2="126.8"
   id="line23" />
</g>
<g
   id="Layer_1">
	
		<sodipodi:namedview
   bordercolor="#000000"
   borderopacity="0.25"
   id="namedview873"
   inkscape:current-layer="Layer_1"
   inkscape:cx="375.73529"
   inkscape:cy="236.27451"
   inkscape:deskcolor="#d1d1d1"
   inkscape:pagecheckerboard="0"
   inkscape:pageopacity="0.0"
   inkscape:showpageshadow="2"
   inkscape:window-height="1167"
   inkscape:window-maximized="0"
   inkscape:window-width="2688"
   inkscape:window-x="0"
   inkscape:window-y="25"
   inkscape:zoom="2.04"
   pagecolor="#ffffff">
		</sodipodi:namedview>
	<path
   id="path78"
   class="st2"
   d="m 230.43333,319.8 c 0,-0.1 0.1,-0.2 0.2,-0.2 0,0 0,0 0.1,0.1 -0.2,0 -0.2,0.1 -0.3,0.1 z" />
	<path
   id="path348"
   class="st3"
   d="m 251.23333,204.1 c -0.2,0.2 -0.3,0.3 -0.5,0.4 0,-0.3 0,-0.6 0,-0.9 0.1,0 0.2,0 0.3,0 0.1,0.1 0.2,0.3 0.2,0.5 z" />
	<path
   id="path359"
   class="st4"
   d="m 239.13333,195.3 c 0.6,-2.3 1.3,-4.7 2.1,-7.1 0.1,0 0.2,0.1 0.2,0.2 -0.5,1.9 -1,3.8 -1.6,5.7 -0.2,0.4 -0.5,0.8 -0.7,1.2 z" />
	<path
   id="path362"
   class="st5"
   d="m 237.23333,201.8 c 0.4,-1.2 0.7,-2.5 1.2,-3.8 0.2,-0.1 0.2,0 0.2,0 -0.3,1.1 -0.6,2.3 -0.9,3.5 0,0.1 0,0.2 -0.1,0.3 -0.2,0 -0.3,0 -0.4,0 z" />
	<path
   id="path363"
   class="st4"
   d="m 238.63333,198 c 0,0 -0.1,0 -0.2,0 0.1,-0.8 0.3,-1.6 0.5,-2.5 0,0.6 -0.1,1.2 -0.2,2 0,0.3 -0.1,0.4 -0.1,0.5 z" />
	<path
   id="path365"
   class="st6"
   d="m 242.03333,188.1 c 0,0.1 0,0.1 -0.1,0.2 -0.2,0 -0.3,0 -0.4,0.1 -0.1,-0.1 -0.1,-0.1 -0.2,-0.2 0,-0.1 0,-0.2 0,-0.4 0.1,0 0.4,0.1 0.7,0.3 z" />
	<path
   id="path370"
   class="st5"
   d="m 238.73333,198 c 0,-0.1 0,-0.2 0.1,-0.4 0,0.1 0,0.2 -0.1,0.4 z" />
	<path
   id="path478"
   class="st7"
   d="m 116.63333,176.6 c -0.9,-0.7 -0.8,-0.8 0.3,-1.3 0,0.4 -0.1,0.8 -0.3,1.3 z" />
	<path
   id="path494"
   class="st7"
   d="m 116.33333,177.5 c 0,-0.1 0,-0.2 0.1,-0.5 0.1,0.2 0,0.3 -0.1,0.5 z" />
	<path
   id="path497"
   class="st7"
   d="m 115.73333,180.2 c 0,-0.1 0,-0.2 0.1,-0.4 0,0.1 -0.1,0.2 -0.1,0.4 z" />
	<path
   id="path498"
   class="st7"
   d="m 115.93333,179.3 c 0,-0.1 0,-0.2 0.1,-0.4 0,0.1 0,0.2 -0.1,0.4 z" />
	<path
   id="path622"
   class="st8"
   d="m 247.93333,163.8 c 0,0 0.1,0.1 0.1,0.2 -0.1,-0.1 -0.1,-0.1 -0.1,-0.2 z" />
	<path
   id="path641"
   class="st3"
   d="m 243.63333,178.7 c 0,-0.1 0.1,-0.1 0.2,-0.1 0,0 0.1,0 0.2,0 -0.2,0.4 0.8,1.1 -0.4,1.2 -0.1,-0.4 -0.1,-0.7 0,-1.1 z" />
	<path
   id="path642"
   class="st3"
   d="m 244.23333,178.4 c 0,0.1 0,0.1 -0.1,0.2 -0.1,-0.1 0,-0.1 0.1,-0.2 z" />
	<path
   id="path643"
   class="st9"
   d="m 169.43333,177.9 c 0,0 0.1,-0.1 0.1,0 z" />
	<path
   id="path647"
   class="st8"
   d="m 237.13333,201.9 c 0.1,0.1 0.1,0.3 0.1,0.6 0,0.1 -0.1,0.1 -0.1,0.1 0,-0.3 0,-0.5 0,-0.7 z" />
	<path
   id="path648"
   class="st3"
   d="m 237.03333,202.6 c 0,-0.1 0.1,-0.1 0.2,-0.1 0,0.1 0,0.1 -0.1,0.2 -0.1,0.1 -0.1,0 -0.1,-0.1 z" />
	<path
   id="path702"
   class="st3"
   d="m 242.83333,203.6 c -0.1,0.1 -0.2,0 -0.4,0 0,-0.1 0.1,-0.2 0.1,-0.3 0.2,0.1 0.3,0.2 0.3,0.3 z" />
	<path
   id="path728"
   class="st7"
   d="m 114.13333,176.8 c 0.3,0 0.5,0 0.7,0 0,0.1 0,0.2 -0.1,0.3 -0.2,0 -0.4,-0.1 -0.6,-0.3 z" />
	<path
   id="path740"
   class="st7"
   d="m 114.53333,174.8 c 0.1,-0.1 0.2,0 0.4,0 0,0.1 -0.1,0.2 -0.1,0.3 -0.1,-0.1 -0.2,-0.1 -0.3,-0.3 z" />
	<path
   id="path838"
   class="st3"
   d="m 244.53333,185.2 c 0.2,0.1 0.4,0.2 0.6,0.3 -0.2,0.2 -0.5,0.4 -0.7,0.6 -0.1,-0.1 -0.2,-0.1 -0.3,-0.2 0.1,-0.2 0.2,-0.5 0.4,-0.7 z" />
	<path
   id="path839"
   class="st3"
   d="m 247.13333,180.6 c 0,0.2 0,0.4 0,0.6 -0.1,0 -0.2,0 -0.3,-0.1 0.1,-0.1 0.2,-0.3 0.3,-0.5 z" />
	<path
   id="path840"
   class="st3"
   d="m 245.53333,182.6 c 0,0.1 -0.1,0.2 -0.2,0.2 0,0 -0.1,-0.1 -0.1,-0.1 0.1,0 0.2,-0.1 0.3,-0.1 z" />
	<path
   id="path841"
   class="st3"
   d="m 244.73333,180.5 c 0.1,0.1 0.1,0.2 0,0.3 0,0 -0.1,0 -0.1,0 0.1,-0.1 0.1,-0.2 0.1,-0.3 z" />
	
		<pattern
   id="SVGID_1_"
   xlink:href="#pattern882"
   patternTransform="matrix(0.3 0 0 -0.3 -5743.6001 -10610.5527)"
   style="enable-background:new">
	</pattern>
	<text
   transform="translate(503.5437,355.88)"
   class="st10 st11 st12"
   id="text23">	<pattern
   id="SVGID_00000133496010263787900860000010787432384775437748_"
   xlink:href="#pattern882"
   patternTransform="matrix(0.3 0 0 -0.3 -5743.6001 -10610.5527)">
	</pattern> METACODE</text>
	<text
   class="st13 st11 st12"
   id="text24"
   x="399.37704"
   y="280.88"
   style="fill:#012046;fill-opacity:1;stroke:#dbdbdb;stroke-opacity:1"><tspan
     style="fill:#032145;fill-opacity:1;stroke:#dbdbdb;stroke-opacity:1"
     id="tspan27">METACODE</tspan></text>
</g>
<g
   id="Слой_3"
   transform="translate(-104.16667,-75)">
	<path
   class="st14"
   d="m 324.5,239.2 c -3.8,0 -23.3,0.2 -23.9,-0.2 -1.3,0.3 -4.6,0 -6.2,0 l -15.3,0.1 c -0.6,0 -2.2,0.2 -2.7,-0.1 -0.3,0.5 -3.8,12.3 -3.9,13.6 1.2,0.4 0.6,0.8 2.4,0.8 7.1,0.1 14.4,0 21.6,0 3.2,-0.1 26.6,-0.4 27.6,0.1 h 24.1 c 1.4,-0.3 34.9,-0.1 41.2,-0.1 0.8,0 0.9,0 1.2,0.2 1.3,-0.2 10.7,-0.1 12.8,-0.1 2,0 9,0.2 11.8,0 0.5,0 0.8,-0.1 1,-0.2 l 0.3,-0.9 c 0.4,-0.5 3.1,-9.8 3,-10.4 0.2,-0.3 0.1,0.1 0.3,-0.6 0,-0.2 0,-0.5 0,-0.7 -0.1,-0.6 -0.2,-0.7 -0.4,-1.1 -0.6,-0.2 -2.2,-0.4 -4.2,-0.4 -4.3,-0.1 -10.4,0.1 -12.5,0.1 -5.6,0 -11.3,0 -16.9,0"
   id="path24" />
	<path
   class="st14"
   d="m 408.4,276.6 c 0.1,0 0.2,0 0.3,0 0.3,0 0.1,0 0.3,-0.2 1.3,-0.3 1.6,-2.2 1.9,-3.3 0.4,-1.4 0.7,-2.6 1.1,-4 0.4,-1.9 1.3,-3.5 1,-5.6 -0.2,-0.1 -0.3,-0.1 -0.3,-0.1 -0.5,-1 -1.7,-0.6 -2.8,-0.7 h -1.2 c -0.7,0 -1.5,0 -2.2,0 -2.2,0 -4.4,0 -6.6,0 -4.4,0 -8.9,-0.1 -13.3,0.1 -0.4,-0.4 -0.2,0.5 -0.4,-0.5 0,0.8 -0.1,0.3 -0.2,0.5 h -1.1 -7.1 l -1.7,0.1 -33.1,-0.1 c -0.6,-0.1 -0.2,0.1 -0.4,-0.4 l -0.7,1.9 v 0.1 l -0.5,1.2 c -0.3,1.6 -1,3.6 -1.5,5.4 -0.4,1.9 -1.2,3.7 -1.5,5.5 l 1.2,0.1 h 2.3"
   id="path25" />
	<path
   class="st14"
   d="m 164,245.4 48.9,-0.1 h 1.5 c 0.1,-0.4 0.2,-0.5 0.3,-1.1 0.6,-0.8 3.4,-9.8 3.5,-11.5 -0.1,-0.6 -0.1,-0.7 -0.7,-1 h -4.6 l -22.6,-0.2 c 0,0 -0.1,0 -0.1,-0.1 l -1.7,0.1 c -3.2,-0.1 -6.9,0 -10.2,0.1 -2,0 -10.7,-0.4 -11.4,0.2"
   id="path26" />
	<path
   class="st15"
   d="m 357.9,220.3 c -1.8,6.4 -3.6,12.6 -5.4,18.9 h -24.3 c 1.8,-6.3 3.6,-12.4 5.4,-18.8 h -27.7 c -1.8,6.1 -3.6,12.4 -5.4,18.9 h -24.2 c 1.8,-6.3 3.7,-12.6 5.5,-18.9 H 254 c -6.3,22.2 -12.6,44.4 -19,66.7 h 27.7 c 3.3,-11.5 6.6,-23 9.8,-34.4 1.2,0.1 2.3,0.3 3.4,0.3 h 18.5 2.1 c -3.3,11.5 -6.5,22.7 -9.7,34 h 28 c 3.4,-11.2 6.3,-22.6 9.6,-33.9 h 24.1 c -1.3,5.9 -3.3,11.4 -4.8,17 -1.5,5.6 -3,11.1 -4.6,16.9 0.5,0 1,0.1 1.5,0.1 11.6,0 23.2,-0.1 34.8,-0.1 h 1.1 c 2.2,0.2 3,1.3 2.4,3.4 -1.5,5 -2.9,10 -4.4,14.9 -0.2,0.6 -0.4,1.3 -0.6,1.9 -0.6,1.4 -1.6,2.2 -3.2,2.2 h -2.9 -33.5 c -0.5,0 -0.9,0 -1.5,0.1 -0.9,2.9 -1.7,5.8 -2.5,8.7 l -15.6,55.5 c -0.2,0.6 -0.4,1.1 -0.7,1.7 -0.7,1.4 -1.8,2.1 -3.3,2.1 h -18.1 c -1.9,0 -2.7,-1 -2.1,-3 1.5,-5.4 3.1,-10.8 4.7,-16.2 2.7,-9.3 5.3,-18.7 8,-28 1.8,-6.4 3.6,-12.8 5.4,-19.1 0.1,-0.5 0.2,-1 0.4,-1.7 h -28.1 c -1.2,4.1 -2.3,8.2 -3.5,12.3 -2.2,7.7 -4.4,15.3 -6.5,23 -2.7,9.6 -5.4,19.1 -8.2,28.7 -0.1,0.4 -0.3,0.8 -0.4,1.2 -0.7,1.8 -2,2.8 -4,2.8 -5.9,0 -11.8,0.1 -17.7,0.1 -2,0 -2.8,-1 -2.2,-2.9 0.8,-3.1 1.8,-6.1 2.7,-9.2 2.9,-10.2 5.8,-20.4 8.8,-30.6 2.2,-7.8 4.5,-15.5 6.7,-23.3 0.2,-0.6 0.3,-1.3 0.5,-2 h -28 c -1,3.3 -1.9,6.6 -2.8,9.9 -1.9,6.8 -3.9,13.6 -5.8,20.3 -3,10.6 -6,21.1 -9,31.7 -0.3,1.2 -0.7,2.3 -1.1,3.4 -0.7,1.7 -2,2.7 -3.9,2.7 h -17.6 c -2.1,0 -2.9,-1.2 -2.3,-3.2 1.3,-4.7 2.7,-9.4 4,-14.1 l 11.1,-38.4 c 1.1,-3.8 2.2,-7.5 3.3,-11.3 0.1,-0.3 0.1,-0.7 0.2,-1.1 -0.5,0 -0.9,-0.1 -1.3,-0.1 -10.7,0 -21.4,0.1 -32,0.1 h -1.1 c -1.7,-0.1 -2.6,-1.3 -2.2,-2.9 0.6,-2 1.2,-4.1 1.8,-6.1 1,-3.3 2,-6.7 3,-10 0.8,-2.6 1.7,-3.3 4.4,-3.3 h 31.3 2.2 c 6.4,-22.2 12.7,-44.4 19.1,-66.7 h -2.2 -30.6 c -3.1,0 -3.8,-1 -2.9,-4.1 1.4,-4.7 2.8,-9.4 4.2,-14 0.2,-0.5 0.3,-1 0.5,-1.5 0.7,-1.9 1.8,-2.8 3.9,-2.8 10.4,0.1 20.8,0 31.1,0 h 2.2 c 1,-3.3 1.9,-6.5 2.8,-9.7 3.1,-10.6 6.1,-21.2 9.1,-31.8 1.8,-6.1 3.5,-12.3 5.2,-18.5 0.1,-0.5 0.3,-1 0.5,-1.5 0.6,-1.5 1.7,-2.3 3.3,-2.3 h 6.5 9.4 1.4 c 2.3,0.1 3.3,1.5 2.7,3.8 -2.7,9.6 -5.5,19.1 -8.2,28.7 -2.8,9.7 -5.6,19.5 -8.4,29.2 -0.2,0.6 -0.3,1.3 -0.5,2 h 27.7 c 0.7,-2.2 1.4,-4.4 2,-6.6 3.2,-11.4 6.5,-22.7 9.7,-34.1 l 5.7,-19.8 c 0.6,-2.1 1.9,-3.1 4.1,-3.1 5.6,0 11.1,0 16.7,-0.1 h 0.5 c 2,0.1 3,1.6 2.5,3.5 -1.9,6.8 -3.9,13.7 -5.8,20.5 -3.3,11.6 -6.5,23.2 -9.8,34.8 -0.5,1.6 -1,3.2 -1.5,5 h 27.9 c 0.1,-0.3 0.3,-0.6 0.4,-0.9 2.2,-7.9 4.4,-15.8 6.7,-23.7 3.5,-12.1 7,-24.1 10.4,-36.1 0.6,-2 1.7,-2.9 3.8,-2.9 5.6,-0.1 11.2,-0.1 16.8,-0.1 0.6,0 1.4,0.1 1.9,0.3 1.2,0.6 1.6,1.8 1.2,3.3 -1.4,5 -2.9,10.1 -4.3,15.1 -1.8,6.4 -3.6,12.8 -5.4,19.1 -2.3,8.1 -4.7,16.2 -7.1,24.3 -0.1,0.5 -0.2,0.9 -0.4,1.5 0.6,0 1,0.1 1.5,0.1 h 34.8 1.6 c 2.1,0.1 3.1,1.4 2.5,3.4 -1.1,4 -2.3,8 -3.5,12 -0.4,1.4 -0.9,2.9 -1.4,4.3 -0.5,1.8 -1.8,2.5 -3.5,2.7 -0.5,0.1 -1.1,0 -1.6,0 h -35.3 c -0.3,-0.2 -0.8,-0.2 -1.3,-0.2 z"
   id="path27"
   sodipodi:nodetypes="ccccccccccccsccccccscssccccscscccsssccccccccccssccccccccccsscccccssccccsccccsccccsccccsscccccccccccscccccccccccsccccccsccccccscc"
   style="fill:#012046;fill-opacity:1" />
</g>
</svg>
